<svg width="524" height="873" viewBox="0 0 524 873" fill="none" xmlns="http://www.w3.org/2000/svg">
<g filter="url(#filter0_f_1110_1253)">
<path fill-rule="evenodd" clip-rule="evenodd" d="M508.744 317.628C535.446 315.485 560.353 293.615 585.462 301.842C610.338 309.992 626.304 334.628 630.572 357.544C634.594 379.144 609.013 396.71 607.195 418.536C605.15 443.081 634.48 469.205 619.533 490.062C605.218 510.038 566.443 496.465 542.998 508.117C508.428 525.3 492.449 572.022 452.694 572.984C415.597 573.882 394.08 535.866 368.534 512.34C341.768 487.69 301.193 466.358 300.028 432.391C298.853 398.134 334.721 371.797 362.897 347.958C384.194 329.938 411.74 319.469 440.578 313.472C463.194 308.769 485.593 319.487 508.744 317.628Z" fill="#AA60D0" fill-opacity="0.5"/>
</g>
<defs>
<filter id="filter0_f_1110_1253" x="0" y="0" width="931" height="873" filterUnits="userSpaceOnUse" color-interpolation-filters="sRGB">
<feFlood flood-opacity="0" result="BackgroundImageFix"/>
<feBlend mode="normal" in="SourceGraphic" in2="BackgroundImageFix" result="shape"/>
<feGaussianBlur stdDeviation="150" result="effect1_foregroundBlur_1110_1253"/>
</filter>
</defs>
</svg>
